<?xml version="1.0" encoding="utf-8"?>
<!-- Generator: Adobe Illustrator 17.1.0, SVG Export Plug-In . SVG Version: 6.00 Build 0) -->
<!DOCTYPE svg PUBLIC "-//W3C//DTD SVG 1.1//EN" "http://www.w3.org/Graphics/SVG/1.1/DTD/svg11.dtd">
<svg version="1.1" id="Layer_1" xmlns="http://www.w3.org/2000/svg" xmlns:xlink="http://www.w3.org/1999/xlink" x="0px" y="0px" viewBox="0 0 2000 2000" enable-background="new 0 0 2000 2000" xml:space="preserve">
	<g transform="translate(0.000000,16799.000000) scale(0.100000,-0.100000)">
		<path fill="#FFFFFF" d="M8560.7,165728l-784.7-1371.6h1441c1138.9,0,1437.5-10.4,1423.6-41.7
		c-361.1-902.8-1343.8-3441.1-1336.8-3448c10.4-7,3718.8,2930.6,3805.7,3017.4c38.2,38.2-281.3,319.5-1833.4,1621.6
		c-1034.8,868.1-1888.9,1579.9-1902.8,1583.4C9359.4,167092.7,8994.8,166481.5,8560.7,165728z" />
		<path fill="#FFFFFF" d="M4359.2,163287C2341.8,161592.5,689,160200.1,689,160189.7c-6.9-41.7,6517.5-11302.4,6545.3-11298.9
		c34.7,3.5,1854.2,3142.4,1836.9,3173.7c-3.5,10.4-1034.7,1798.7-2291.7,3972.3s-2291.7,3979.3-2298.7,4010.5
		c-10.4,38.2,3159.8,5604.3,3590.4,6298.8c6.9,13.9,3.5,24.3-13.9,20.8C8043.3,166367,6376.6,164981.5,4359.2,163287z" />
		<path fill="#FFFFFF" d="M14342.1,164280.1c-45.1-59-868.1-1486.2-1475.7-2562.6l-479.2-850.7l1795.2-17.4
		c1173.6-10.4,1795.2-27.8,1788.2-52.1c-6.9-27.8-2944.5-5139-2979.2-5187.6c-6.9-6.9-1263.9,576.4-2798.7,1291.7
		S7401,158200.1,7394,158193.1c-10.4-10.4,5330-9257.2,5371.7-9298.9c17.4-17.4,100.7,86.8,208.3,277.8
		c1805.6,3097.3,6347.4,11003.8,6337,11021.1c-20.8,34.7-4875.1,4107.8-4909.9,4121.6
		C14387.3,164318.3,14359.5,164304.4,14342.1,164280.1z" />
	</g>
</svg>
